<?xml version="1.0" encoding="utf-8"?>
<svg viewBox="0 0 1146 765" style="enable-background:new 0 0 1146 765;" xmlns="http://www.w3.org/2000/svg">
  <defs>
    <style type="text/css">
	.st0{fill:#18391A;}
	.st1{fill:#C3A25D;}
	.st2{font-family:'ArialMT';}
	.st3{font-size:22.0858px;}
</style>
  </defs>
  <g transform="matrix(1, 0, 0, 1, -2.2737367544323206e-13, 0)">
    <path class="st1" d="M171.7,152.6h227.9c14.1,0,20.1-3.3,23.7-10.7c0.8,0,2.8,0,2.8,0v57.6c0,0-2,0-2.8,0 c-3.6-7-9.6-10.7-23.7-10.7H156.8L349,317.1v4.2L173.7,454.1h204.2c17.3,0,38.6-13.9,45.4-29.3c0.8,0,2.8,0,2.8,0v62.3 c0,0-2,0-2.8,0c-6.8-15.3-28.1-11.4-45.4-11.4H169.7h-24.9v-38.8l178.1-133.3L144.8,185.1v-43.2c0,0,2.4,0,3.2,0 C151.6,149.3,157.2,152.6,171.7,152.6z"/>
    <g>
      <path class="st1" d="M184.7,540l-2.1,10h-38.5c0,0,0-0.4,0-0.6c1.4-0.7,2.1-2,2.1-4.9v-46.9c0-2.9-0.7-4.1-2.1-4.9 c0-0.2,0-0.7,0-0.7h35.5l2,9.2l-0.5,0.3c-4.4-4.3-10.2-8.9-20.8-8.9h-6.6v24.4l23.9-1.8v4.2l-23.9-1.7v31.6h7.7 c10.4,0,18.3-4.7,22.8-9.8L184.7,540z"/>
      <path class="st1" d="M241.8,502.1l-0.6,0.2c-4.3-4.2-10.2-9.7-20.8-9.7h-2.1v51.8c0,2.9,0.8,4.1,2.2,4.9c0,0.2,0,0.6,0,0.6h-11.8 c0,0,0-0.4,0-0.6c1.4-0.7,2.2-2,2.2-4.9v-51.8h-2.1c-10.5,0-16.5,5.5-20.8,9.7l-0.6-0.2l3-10.1h48.2L241.8,502.1z"/>
      <path class="st1" d="M290.2,559.4V516h-33v28.5c0,2.9,0.7,4.1,2.1,4.9c0,0.2,0,0.6,0,0.6h-11.8c0,0,0-0.4,0-0.6 c1.5-0.7,2.2-2,2.2-4.9v-46.9c0-2.9-0.7-4.1-2.2-4.9c0-0.2,0-0.7,0-0.7h11.8c0,0,0,0.5,0,0.7c-1.4,0.7-2.1,2-2.1,4.9v17.8h33 v-17.8c0-2.9-0.7-4.1-2.2-4.9c0-0.2,0-0.7,0-0.7h11.8c0,0,0,0.5,0,0.7c-1.4,0.7-2.1,2-2.1,4.9v61.8"/>
      <path class="st1" d="M364.5,550h-14.6v-0.6c2.5-2.2,1.7-5-0.9-11.1l-4.6-10.5h-23.5l-2.6,6.3c-3,7.5-3.5,11.6,0.5,15.3v0.6h-11.2 v-0.6c4.1-3.7,6.8-7.5,10-15.3l14.2-34.9l-3.1-7.1h7.5l18.5,42c3.9,8.3,6.4,11.6,10,15.3V550z M344,527.1L332,500.1l-11,27.1H344z "/>
      <path class="st1" d="M429.9,492c0,0,0,0.5,0,0.7c-3.1,1.4-6,5.7-6,9.3v48h-1.4l-45.1-50.4V540c0,3.6,2.8,7.9,6.1,9.4 c0,0.2,0,0.6,0,0.6h-12.8c0,0,0-0.4,0-0.6c3.2-1.4,6.1-5.8,6.1-9.4v-41.2l-6.1-6.8h9.6l43,47.5V502c0-3.6-2.8-7.9-6-9.3 c0-0.2,0-0.7,0-0.7H429.9z"/>
      <path class="st1" d="M205.9,561.1v47.8c0,3,0.6,4.2,1.9,5c0,0.2,0,0.6,0,0.6h-10.4c0,0,0-0.4,0-0.6c1.3-0.8,1.9-2,1.9-5v-51 L176,598.3h-0.8l-24.1-36.8v42.9c0,3.6,2.5,8.1,5.3,9.5c0,0.2,0,0.6,0,0.6h-11.3c0,0,0-0.4,0-0.6c2.8-1.4,5.3-5.9,5.3-9.5v-43.7 l-3.8-5.2h7.6l24.2,37.4l21.5-37.4h7.8c0,0,0,0.5,0,0.7C206.5,556.8,205.9,558,205.9,561.1z"/>
      <path class="st1" d="M277.8,584.8c0,16.6-13.9,30.2-30.6,30.2c-16.7,0-30.6-13.6-30.6-30.2c0-16.7,13.9-30.2,30.6-30.2 C263.9,554.6,277.8,568.1,277.8,584.8z M269.8,577.9c-4.5-14.9-17-25.6-31.1-21.3s-18.5,20.2-13.9,35c4.5,14.9,17,25.7,31.1,21.3 S274.3,592.8,269.8,577.9z"/>
      <path class="st1" d="M297.7,558.1v42.7c0,14.6-9.9,19.4-18.3,22.3l-0.3-0.8c7.5-3.4,11-7.6,11-21.5v-42.7"/>
      <path class="st1" d="M315,561.1v47.8c0,3,0.6,4.2,1.9,5c0,0.2,0,0.6,0,0.6h-10.4c0,0,0-0.4,0-0.6c1.3-0.8,1.9-2,1.9-5v-47.8 c0-3-0.6-4.2-1.9-5c0-0.2,0-0.7,0-0.7H317c0,0,0,0.5,0,0.7C315.6,556.8,315,558.1,315,561.1z"/>
      <path class="st1" d="M378.5,597.8c-4.5,9.5-12.6,17.2-27.5,17.2c-16.6,0-31-13.5-31-30.2c0-16.7,15.1-30.2,31.8-30.2 c9.1,0,14.6,2.4,21.7,7.1l-2.5,9.6h-0.6c-6.1-9.8-16.2-17-27.2-14.7c-14.4,3.1-19.6,20.2-15.1,35.1c4.5,14.9,16.7,22.6,31.5,20.3 c7.6-1.1,14.1-6.1,18.4-14.5L378.5,597.8z"/>
      <path class="st1" d="M429.9,614.5h-13v-0.6c2.2-2.2,1.5-5.1-0.8-11.3l-4.1-10.7h-20.9l-2.3,6.4c-2.7,7.7-3.1,11.8,0.4,15.6v0.6 h-9.9v-0.6c3.6-3.8,6.1-7.7,8.8-15.6l12.6-35.6l-2.8-7.3h6.7l16.4,42.9c3.5,8.4,5.6,11.8,8.8,15.6V614.5z M411.7,591.2l-10.6-27.6 l-9.8,27.6H411.7z"/>
    </g>
  </g>
</svg>